<?xml version="1.0" encoding="UTF-8" standalone="no"?>
<!-- Created with Inkscape (http://www.inkscape.org/) -->

<svg
   width="100"
   height="100"
   viewBox="0 0 26.458333 26.458333"
   version="1.1"
   id="svg5"
   inkscape:version="1.1.1 (eb90963e84, 2021-10-02)"
   sodipodi:docname="magma_logo.svg"
   xmlns:inkscape="http://www.inkscape.org/namespaces/inkscape"
   xmlns:sodipodi="http://sodipodi.sourceforge.net/DTD/sodipodi-0.dtd"
   xmlns="http://www.w3.org/2000/svg"
   xmlns:svg="http://www.w3.org/2000/svg">
  <sodipodi:namedview
     id="namedview7"
     pagecolor="#ffffff"
     bordercolor="#666666"
     borderopacity="1.0"
     inkscape:pageshadow="2"
     inkscape:pageopacity="0.0"
     inkscape:pagecheckerboard="0"
     inkscape:document-units="mm"
     showgrid="false"
     inkscape:zoom="0.64052329"
     inkscape:cx="397.33138"
     inkscape:cy="561.25984"
     inkscape:window-width="2560"
     inkscape:window-height="1461"
     inkscape:window-x="0"
     inkscape:window-y="34"
     inkscape:window-maximized="1"
     inkscape:current-layer="layer1"
     width="100mm"
     units="px" />
  <defs
     id="defs2" />
  <g
     inkscape:label="Layer 1"
     inkscape:groupmode="layer"
     id="layer1">
    <g
       id="g136"
       transform="matrix(0.07000434,0,0,0.07000434,1.0229757,27.389556)">
      <g
         id="g115"
         style="fill:#5f00ad;fill-opacity:1"
         transform="matrix(1.5496218,0,0,1.5483522,-18.64205,-397.29368)">
	<path
   class="st0"
   d="m 29.1,201.9 c 1.9,2.4 3.9,4.7 5.9,6.9 -2,-2.2 -4,-4.5 -5.9,-6.9 z"
   id="path93"
   style="fill:#5f00ad;fill-opacity:1" />

	<path
   class="st0"
   d="m 25.2,196.7 c -0.7,-1 -1.3,-1.9 -2,-2.9 0.6,1 1.3,2 2,2.9 z"
   id="path95"
   style="fill:#5f00ad;fill-opacity:1" />

	<path
   class="st0"
   d="m 17.3,184 c 1.5,1.8 3.5,2 6.2,1.1 7.2,-2.6 11.2,-8 11.2,-16 0,-23.7 0,-47.3 0,-71 0,-8 2.3,-15.4 6.7,-22.1 C 52.5,58.9 74,54 92.2,61.3 c 11,4.4 18.8,12.7 22.4,24.5 1.7,5.7 2.3,11.4 2.3,17.2 0,19.8 -0.2,39.6 -0.1,59.5 0,7.7 5.2,12.2 11.6,10.4 3.9,-1 6.8,-5.5 6.7,-11.1 -0.1,-12.2 -0.5,-24.3 -0.5,-36.5 0,-10.2 1.1,-20.3 7.4,-29 10.1,-14 24.1,-19.1 40.6,-16.4 14.5,2.3 24.7,10.7 30.2,24.5 2.2,5.5 3.2,11.2 3.3,17 0.1,16.2 0,32.3 0,48.5 0,6.7 2.8,11.4 8.7,14.5 3,1.5 5.4,1.5 7.2,-0.7 -0.6,1.1 -1.2,2.2 -1.9,3.3 10.4,-18 16.4,-38.8 16.4,-61.1 0,-67.4 -54.6,-122 -122,-122 C 57.1,3.9 2.6,58.6 2.6,126 c 0,22.3 6,43.1 16.4,61.1 -0.6,-1 -1.2,-2 -1.7,-3.1 z"
   id="path97"
   style="fill:#5f00ad;fill-opacity:1" />

	<path
   class="st0"
   d="m 219.7,202.5 c -2.4,3 -5,5.9 -7.6,8.6 2.6,-2.7 5.2,-5.6 7.6,-8.6 z"
   id="path99"
   style="fill:#5f00ad;fill-opacity:1" />

	<path
   class="st0"
   d="m 224.1,196.7 c 0.3,-1.2 -0.5,-1.9 -2.4,-2.6 C 209.3,189.8 205.3,180 205,168 c -0.4,-16.7 0.8,-33.3 0,-50 -0.6,-13.5 -9.4,-23.6 -24.1,-27.4 -10.5,-2.8 -25,3.5 -31,13.6 -3.7,6.2 -4.9,13 -4.9,20.1 0,14 0.3,28 0,42 -0.2,9.8 -8.4,17.4 -18.2,17.6 -12.2,0.3 -20.3,-7 -20.5,-19.3 -0.3,-14.8 0.1,-29.6 0.1,-44.5 0,-7.7 0.3,-15.4 -0.5,-23 -1.2,-12.9 -8,-22.6 -20.5,-26.2 -12.3,-3.6 -24.2,-1.7 -33.2,8.9 -5.9,6.8 -7.6,15.1 -7.6,23.7 -0.1,21.8 0.2,43.6 0.3,65.5 0.1,12.8 -4.9,21.8 -17.7,25.6 -1.2,0.4 -2.3,0.6 -2.2,2.2 v 0.1 c 1.3,1.8 2.6,3.5 3.9,5.2 2.3,1.4 5,2 7.1,1.2 13,-5.5 19.7,-15.5 20.2,-29.4 0.4,-12.3 0.1,-24.6 0.1,-37 0,0 0,0 0.1,0 0,-12.2 -0.1,-24.3 0,-36.5 0.3,-12 8.6,-20.4 19.7,-20.3 10.8,0.1 18.8,8.6 18.8,20.3 0,14.8 -0.3,29.7 -0.1,44.5 0.1,9.9 -1.1,19.9 2,29.8 3.5,11.1 13.1,19 24.6,20.3 15.5,1.8 27.3,-6.6 31.4,-15.5 4.7,-10.2 4.2,-21.1 4,-31.9 -0.2,-10.2 -1,-20.3 0.1,-30.4 0.8,-7 6.5,-13.6 13.2,-15.4 7.6,-2 15.9,0.6 20.2,6.4 3.6,4.7 4.7,10.2 4.7,15.9 -0.1,14.7 -0.4,29.3 -0.5,44 -0.1,13.5 3.5,25.3 16,32.8 5.2,3.1 6.8,3.9 9.2,1.6 2.3,-2.8 4.4,-5.7 6.4,-8.7 -0.7,1 -1.4,2 -2,2.9 z"
   id="path101"
   style="fill:#5f00ad;fill-opacity:1" />

	<path
   class="st0"
   d="m 226.5,193.2 c 0.5,-0.8 1.1,-1.6 1.6,-2.5 -0.6,0.9 -1.1,1.7 -1.6,2.5 z"
   id="path103"
   style="fill:#5f00ad;fill-opacity:1" />

	<path
   class="st0"
   d="m 209,214.1 c 0.5,-1 -0.1,-1.9 -2,-3 -6.7,-3.8 -12.5,-8.8 -16.6,-15.5 -4.6,-7.5 -6.2,-15.8 -6.4,-24.3 -0.3,-15.8 0,-31.6 0,-47.5 0,-2 -0.1,-4 -0.6,-5.9 -0.8,-3.7 -3.6,-5.7 -7,-6.3 -3.4,-0.6 -5.9,1.5 -7.8,4.2 -1.7,2.5 -1.8,5.3 -1.8,8.1 0,13.8 0.3,27.6 0,41.5 -0.5,22 -15,37.5 -36.8,39.9 -23.9,2.6 -43.5,-14 -45.2,-37.9 -0.8,-11.7 -0.2,-23.3 0.1,-34.9 0,-9.7 -0.1,-19.3 0,-29 0,-3.1 -0.7,-5.9 -2.1,-8.6 -1.5,-3.1 -4.3,-4.4 -7.3,-4.3 -3.3,0.1 -6.1,1.9 -7.2,5.3 -0.6,2 -1.1,4.2 -1,6.4 0.1,15.5 0.2,31 0.4,46.5 0.1,9.3 0.2,18.6 -0.8,27.9 -1.7,16.2 -9.6,28 -24.3,35.1 -2.5,1.2 -2.2,2.3 -1.2,3.5 21.8,20.3 51,32.7 83.1,32.7 34.1,0 64.9,-14 87,-36.5 -0.7,0.9 -1.6,1.8 -2.5,2.6 z"
   id="path105"
   style="fill:#5f00ad;fill-opacity:1" />

	<path
   class="st0"
   d="m 230.2,187.2 c -0.6,1 -1.2,2 -1.8,2.9 0.7,-1 1.2,-1.9 1.8,-2.9 z"
   id="path107"
   style="fill:#5f00ad;fill-opacity:1" />

	<path
   class="st0"
   d="m 35.1,208.9 c 2.1,2.2 4.2,4.4 6.4,6.4 -2.2,-2.1 -4.4,-4.2 -6.4,-6.4 z"
   id="path109"
   style="fill:#5f00ad;fill-opacity:1" />

	<path
   class="st0"
   d="m 20.8,190.1 c -0.5,-0.8 -0.9,-1.6 -1.4,-2.3 0.4,0.7 0.9,1.5 1.4,2.3 z"
   id="path111"
   style="fill:#5f00ad;fill-opacity:1" />

	<path
   class="st0"
   d="m 21.3,190.9 c 0.5,0.8 1,1.5 1.5,2.3 -0.5,-0.8 -1,-1.5 -1.5,-2.3 z"
   id="path113"
   style="fill:#5f00ad;fill-opacity:1" />

</g>
      <g
         id="g127"
         style="fill:#5f00ad;fill-opacity:1">
	
	
	
	
	
</g>
    </g>
  </g>
  <style
     type="text/css"
     id="style91">
	.st0{fill:#FFFFFF;}
</style>
</svg>
